<svg xmlns="http://www.w3.org/2000/svg" xmlns:xlink="http://www.w3.org/1999/xlink" width="40" zoomAndPan="magnify" viewBox="0 0 30 30.000001" height="40" preserveAspectRatio="xMidYMid meet" version="1.0"><defs><clipPath id="011115b28f"><path d="M 0.484375 0 L 29.515625 0 L 29.515625 29.03125 L 0.484375 29.03125 Z M 0.484375 0 " clip-rule="nonzero"/></clipPath></defs><g clip-path="url(#011115b28f)"><path fill="#ffffff" d="M 15 0 C 6.988281 0 0.484375 6.503906 0.484375 14.515625 C 0.484375 22.527344 6.988281 29.03125 15 29.03125 C 23.011719 29.03125 29.515625 22.527344 29.515625 14.515625 C 29.515625 6.503906 23.011719 0 15 0 Z M 15 5.804688 C 16.90625 5.804688 18.453125 7.355469 18.453125 9.261719 C 18.453125 11.167969 16.90625 12.726562 15 12.726562 C 13.09375 12.726562 11.546875 11.167969 11.546875 9.261719 C 11.546875 7.355469 13.09375 5.804688 15 5.804688 Z M 19.335938 23.226562 L 10.664062 23.226562 C 9.320312 23.226562 8.226562 22.132812 8.226562 20.785156 C 8.226562 17.050781 11.265625 14.011719 15 14.011719 C 18.734375 14.011719 21.773438 17.050781 21.773438 20.785156 C 21.773438 22.132812 20.679688 23.226562 19.335938 23.226562 Z M 19.335938 23.226562 " fill-opacity="1" fill-rule="nonzero"/><path fill="#ffffff" d="M 15 0 C 6.988281 0 0.484375 6.503906 0.484375 14.515625 C 0.484375 22.527344 6.988281 29.03125 15 29.03125 C 23.011719 29.03125 29.515625 22.527344 29.515625 14.515625 C 29.515625 6.503906 23.011719 0 15 0 Z M 15 5.804688 C 16.90625 5.804688 18.453125 7.355469 18.453125 9.261719 C 18.453125 11.167969 16.90625 12.726562 15 12.726562 C 13.09375 12.726562 11.546875 11.167969 11.546875 9.261719 C 11.546875 7.355469 13.09375 5.804688 15 5.804688 Z M 19.335938 23.226562 L 10.664062 23.226562 C 9.320312 23.226562 8.226562 22.132812 8.226562 20.785156 C 8.226562 17.050781 11.265625 14.011719 15 14.011719 C 18.734375 14.011719 21.773438 17.050781 21.773438 20.785156 C 21.773438 22.132812 20.679688 23.226562 19.335938 23.226562 Z M 19.335938 23.226562 " fill-opacity="1" fill-rule="nonzero"/></g></svg>