<svg xmlns="http://www.w3.org/2000/svg" xmlns:xlink="http://www.w3.org/1999/xlink" width="40" zoomAndPan="magnify" viewBox="0 0 30 30.000001" height="40" preserveAspectRatio="xMidYMid meet" version="1.0"><defs><clipPath id="50aa35278a"><path d="M 0.484375 2.230469 L 29.515625 2.230469 L 29.515625 26.910156 L 0.484375 26.910156 Z M 0.484375 2.230469 " clip-rule="nonzero"/></clipPath></defs><g clip-path="url(#50aa35278a)"><path fill="#ffffff" d="M 29.183594 4.796875 C 28.960938 4.574219 28.699219 4.464844 28.398438 4.464844 L 7.445312 4.464844 C 7.433594 4.382812 7.40625 4.234375 7.367188 4.019531 C 7.324219 3.804688 7.292969 3.632812 7.269531 3.503906 C 7.246094 3.378906 7.203125 3.222656 7.140625 3.042969 C 7.074219 2.863281 7 2.71875 6.914062 2.617188 C 6.824219 2.511719 6.710938 2.421875 6.5625 2.34375 C 6.417969 2.269531 6.253906 2.230469 6.066406 2.230469 L 1.601562 2.230469 C 1.296875 2.230469 1.035156 2.34375 0.816406 2.5625 C 0.59375 2.785156 0.484375 3.046875 0.484375 3.347656 C 0.484375 3.652344 0.59375 3.914062 0.816406 4.132812 C 1.035156 4.355469 1.296875 4.464844 1.601562 4.464844 L 5.160156 4.464844 L 8.246094 18.824219 C 8.222656 18.871094 8.105469 19.089844 7.890625 19.484375 C 7.675781 19.882812 7.503906 20.226562 7.375 20.523438 C 7.246094 20.820312 7.183594 21.050781 7.183594 21.214844 C 7.183594 21.515625 7.292969 21.777344 7.515625 22 C 7.734375 22.21875 7.996094 22.332031 8.300781 22.332031 L 9.390625 22.332031 C 8.785156 22.335938 8.265625 22.554688 7.835938 22.984375 C 7.402344 23.421875 7.183594 23.949219 7.183594 24.5625 C 7.183594 25.179688 7.402344 25.707031 7.835938 26.140625 C 8.273438 26.578125 8.800781 26.796875 9.414062 26.796875 C 10.03125 26.796875 10.558594 26.578125 10.996094 26.140625 C 11.429688 25.707031 11.648438 25.179688 11.648438 24.5625 C 11.648438 23.949219 11.429688 23.421875 10.996094 22.984375 C 10.566406 22.554688 10.046875 22.335938 9.441406 22.332031 L 25.023438 22.332031 C 24.417969 22.335938 23.898438 22.554688 23.46875 22.984375 C 23.035156 23.421875 22.816406 23.949219 22.816406 24.5625 C 22.816406 25.179688 23.035156 25.707031 23.46875 26.140625 C 23.902344 26.578125 24.429688 26.796875 25.046875 26.796875 C 25.664062 26.796875 26.191406 26.578125 26.625 26.140625 C 27.0625 25.707031 27.28125 25.179688 27.28125 24.5625 C 27.28125 23.949219 27.0625 23.421875 26.625 22.984375 C 26.195312 22.554688 25.675781 22.335938 25.070312 22.332031 L 26.164062 22.332031 C 26.464844 22.332031 26.726562 22.21875 26.949219 22 C 27.167969 21.777344 27.28125 21.515625 27.28125 21.214844 C 27.28125 20.910156 27.167969 20.648438 26.949219 20.429688 C 26.726562 20.207031 26.464844 20.097656 26.164062 20.097656 L 10.113281 20.097656 C 10.390625 19.539062 10.53125 19.167969 10.53125 18.980469 C 10.53125 18.863281 10.519531 18.738281 10.488281 18.597656 C 10.460938 18.457031 10.425781 18.304688 10.382812 18.132812 C 10.34375 17.964844 10.316406 17.839844 10.304688 17.761719 L 28.519531 15.632812 C 28.808594 15.597656 29.046875 15.472656 29.234375 15.257812 C 29.421875 15.042969 29.511719 14.792969 29.511719 14.515625 L 29.511719 5.582031 C 29.511719 5.28125 29.402344 5.019531 29.183594 4.796875 " fill-opacity="1" fill-rule="nonzero"/><path fill="#ffffff" d="M 29.183594 4.796875 C 28.960938 4.574219 28.699219 4.464844 28.398438 4.464844 L 7.445312 4.464844 C 7.433594 4.382812 7.40625 4.234375 7.367188 4.019531 C 7.324219 3.804688 7.292969 3.632812 7.269531 3.503906 C 7.246094 3.378906 7.203125 3.222656 7.140625 3.042969 C 7.074219 2.863281 7 2.71875 6.914062 2.617188 C 6.824219 2.511719 6.710938 2.421875 6.5625 2.34375 C 6.417969 2.269531 6.253906 2.230469 6.066406 2.230469 L 1.601562 2.230469 C 1.296875 2.230469 1.035156 2.34375 0.816406 2.5625 C 0.59375 2.785156 0.484375 3.046875 0.484375 3.347656 C 0.484375 3.652344 0.59375 3.914062 0.816406 4.132812 C 1.035156 4.355469 1.296875 4.464844 1.601562 4.464844 L 5.160156 4.464844 L 8.246094 18.824219 C 8.222656 18.871094 8.105469 19.089844 7.890625 19.484375 C 7.675781 19.882812 7.503906 20.226562 7.375 20.523438 C 7.246094 20.820312 7.183594 21.050781 7.183594 21.214844 C 7.183594 21.515625 7.292969 21.777344 7.515625 22 C 7.734375 22.21875 7.996094 22.332031 8.300781 22.332031 L 9.390625 22.332031 C 8.785156 22.335938 8.265625 22.554688 7.835938 22.984375 C 7.402344 23.421875 7.183594 23.949219 7.183594 24.5625 C 7.183594 25.179688 7.402344 25.707031 7.835938 26.140625 C 8.273438 26.578125 8.800781 26.796875 9.414062 26.796875 C 10.03125 26.796875 10.558594 26.578125 10.996094 26.140625 C 11.429688 25.707031 11.648438 25.179688 11.648438 24.5625 C 11.648438 23.949219 11.429688 23.421875 10.996094 22.984375 C 10.566406 22.554688 10.046875 22.335938 9.441406 22.332031 L 25.023438 22.332031 C 24.417969 22.335938 23.898438 22.554688 23.46875 22.984375 C 23.035156 23.421875 22.816406 23.949219 22.816406 24.5625 C 22.816406 25.179688 23.035156 25.707031 23.46875 26.140625 C 23.902344 26.578125 24.429688 26.796875 25.046875 26.796875 C 25.664062 26.796875 26.191406 26.578125 26.625 26.140625 C 27.0625 25.707031 27.28125 25.179688 27.28125 24.5625 C 27.28125 23.949219 27.0625 23.421875 26.625 22.984375 C 26.195312 22.554688 25.675781 22.335938 25.070312 22.332031 L 26.164062 22.332031 C 26.464844 22.332031 26.726562 22.21875 26.949219 22 C 27.167969 21.777344 27.28125 21.515625 27.28125 21.214844 C 27.28125 20.910156 27.167969 20.648438 26.949219 20.429688 C 26.726562 20.207031 26.464844 20.097656 26.164062 20.097656 L 10.113281 20.097656 C 10.390625 19.539062 10.53125 19.167969 10.53125 18.980469 C 10.53125 18.863281 10.519531 18.738281 10.488281 18.597656 C 10.460938 18.457031 10.425781 18.304688 10.382812 18.132812 C 10.34375 17.964844 10.316406 17.839844 10.304688 17.761719 L 28.519531 15.632812 C 28.808594 15.597656 29.046875 15.472656 29.234375 15.257812 C 29.421875 15.042969 29.511719 14.792969 29.511719 14.515625 L 29.511719 5.582031 C 29.511719 5.28125 29.402344 5.019531 29.183594 4.796875 " fill-opacity="1" fill-rule="nonzero"/></g></svg>