<svg xmlns="http://www.w3.org/2000/svg" xmlns:xlink="http://www.w3.org/1999/xlink" width="40" zoomAndPan="magnify" viewBox="0 0 30 30.000001" height="40" preserveAspectRatio="xMidYMid meet" version="1.0"><defs><clipPath id="1074a37762"><path d="M 5.417969 2 L 24 2 L 24 29.03125 L 5.417969 29.03125 Z M 5.417969 2 " clip-rule="nonzero"/></clipPath><clipPath id="c0c52b89f1"><path d="M 5.417969 2 L 24 2 L 24 29.03125 L 5.417969 29.03125 Z M 5.417969 2 " clip-rule="nonzero"/></clipPath></defs><g clip-path="url(#1074a37762)"><path fill="#ffffff" d="M 21.703125 26.699219 C 20.457031 27.65625 18.703125 28.597656 16.425781 28.90625 C 16.253906 28.929688 16.085938 28.949219 15.914062 28.964844 C 15.453125 29.011719 15.007812 29.03125 14.589844 29.015625 C 11.503906 28.960938 8.625 27.660156 6.742188 24.976562 C 5.667969 22.980469 5.480469 21.445312 5.445312 20.679688 C 5.421875 20.179688 5.457031 19.800781 5.460938 19.71875 C 5.523438 18.984375 5.730469 17.914062 6.421875 16.710938 C 7.074219 15.574219 7.464844 14.996094 7.90625 14.125 C 8.710938 12.539062 8.78125 10.476562 8.414062 9.429688 C 8.449219 9.464844 10.660156 11.882812 10.683594 13.730469 C 10.695312 15.050781 10.28125 16.121094 10.085938 16.59375 C 11.027344 16.085938 12 15.246094 12.273438 13.9375 C 12.5625 12.550781 11.761719 11.949219 11.484375 9.714844 C 11.414062 9.164062 11.191406 7.132812 12.289062 5.109375 C 12.984375 3.828125 13.941406 3.046875 14.539062 2.632812 C 14.296875 3.375 14.046875 4.515625 14.289062 5.808594 C 14.832031 8.71875 17.328125 9.53125 18.265625 12.421875 C 18.585938 13.414062 18.8125 14.933594 18.207031 17.070312 C 18.640625 16.699219 19.445312 15.90625 19.898438 14.632812 C 20.644531 12.550781 19.894531 10.722656 19.699219 10.277344 C 22.382812 12.007812 23.054688 13.566406 23.15625 14.695312 C 23.34375 16.75 22.304688 17.566406 23.320312 19.550781 C 23.34375 19.597656 23.367188 19.640625 23.386719 19.6875 C 24.570312 22.117188 23.847656 25.050781 21.703125 26.699219 Z M 21.703125 26.699219 " fill-opacity="1" fill-rule="nonzero"/></g><path fill="#ffffff" d="M 16.246094 6.167969 C 16.246094 6.167969 17.5 4.796875 17.613281 3.625 C 17.6875 2.847656 17.753906 1.972656 15.855469 0 C 16.085938 0.792969 16.582031 2.308594 16.476562 3.625 C 16.398438 4.648438 16.246094 6.167969 16.246094 6.167969 Z M 16.246094 6.167969 " fill-opacity="1" fill-rule="nonzero"/><path fill="#ffffff" d="M 10.40625 9.855469 C 10.578125 9.804688 10.132812 8.828125 10.191406 7.269531 C 10.226562 6.390625 10.40625 5.679688 10.558594 5.203125 C 10.230469 5.496094 9.285156 6.371094 9.28125 7.613281 C 9.277344 8.855469 10.222656 9.910156 10.40625 9.855469 Z M 10.40625 9.855469 " fill-opacity="1" fill-rule="nonzero"/><g clip-path="url(#c0c52b89f1)"><path fill="#ffffff" d="M 21.703125 26.699219 C 20.457031 27.65625 18.703125 28.597656 16.425781 28.90625 C 16.253906 28.929688 16.085938 28.949219 15.914062 28.964844 C 15.453125 29.011719 15.007812 29.03125 14.589844 29.015625 C 11.503906 28.960938 8.625 27.660156 6.742188 24.976562 C 5.667969 22.980469 5.480469 21.445312 5.445312 20.679688 C 5.421875 20.179688 5.457031 19.800781 5.460938 19.71875 C 5.523438 18.984375 5.730469 17.914062 6.421875 16.710938 C 7.074219 15.574219 7.464844 14.996094 7.90625 14.125 C 8.710938 12.539062 8.78125 10.476562 8.414062 9.429688 C 8.449219 9.464844 10.660156 11.882812 10.683594 13.730469 C 10.695312 15.050781 10.28125 16.121094 10.085938 16.59375 C 11.027344 16.085938 12 15.246094 12.273438 13.9375 C 12.5625 12.550781 11.761719 11.949219 11.484375 9.714844 C 11.414062 9.164062 11.191406 7.132812 12.289062 5.109375 C 12.984375 3.828125 13.941406 3.046875 14.539062 2.632812 C 14.296875 3.375 14.046875 4.515625 14.289062 5.808594 C 14.832031 8.71875 17.328125 9.53125 18.265625 12.421875 C 18.585938 13.414062 18.8125 14.933594 18.207031 17.070312 C 18.640625 16.699219 19.445312 15.90625 19.898438 14.632812 C 20.644531 12.550781 19.894531 10.722656 19.699219 10.277344 C 22.382812 12.007812 23.054688 13.566406 23.15625 14.695312 C 23.34375 16.75 22.304688 17.566406 23.320312 19.550781 C 23.34375 19.597656 23.367188 19.640625 23.386719 19.6875 C 24.570312 22.117188 23.847656 25.050781 21.703125 26.699219 Z M 21.703125 26.699219 " fill-opacity="1" fill-rule="nonzero"/></g><path fill="#ffffff" d="M 16.246094 6.167969 C 16.246094 6.167969 17.5 4.796875 17.613281 3.625 C 17.6875 2.847656 17.753906 1.972656 15.855469 0 C 16.085938 0.792969 16.582031 2.308594 16.476562 3.625 C 16.398438 4.648438 16.246094 6.167969 16.246094 6.167969 Z M 16.246094 6.167969 " fill-opacity="1" fill-rule="nonzero"/><path fill="#ffffff" d="M 10.40625 9.855469 C 10.578125 9.804688 10.132812 8.828125 10.191406 7.269531 C 10.226562 6.390625 10.40625 5.679688 10.558594 5.203125 C 10.230469 5.496094 9.285156 6.371094 9.28125 7.613281 C 9.277344 8.855469 10.222656 9.910156 10.40625 9.855469 Z M 10.40625 9.855469 " fill-opacity="1" fill-rule="nonzero"/></svg>