<svg xmlns="http://www.w3.org/2000/svg" xmlns:xlink="http://www.w3.org/1999/xlink" width="40" zoomAndPan="magnify" viewBox="0 0 30 30.000001" height="40" preserveAspectRatio="xMidYMid meet" version="1.0"><defs><clipPath id="bfac48e991"><path d="M 0.484375 2.324219 L 29.515625 2.324219 L 29.515625 7 L 0.484375 7 Z M 0.484375 2.324219 " clip-rule="nonzero"/></clipPath><clipPath id="5c8028074d"><path d="M 0.484375 12 L 29.515625 12 L 29.515625 17 L 0.484375 17 Z M 0.484375 12 " clip-rule="nonzero"/></clipPath><clipPath id="6c739e12d4"><path d="M 0.484375 22 L 29.515625 22 L 29.515625 27 L 0.484375 27 Z M 0.484375 22 " clip-rule="nonzero"/></clipPath><clipPath id="8e6208f51e"><path d="M 0.484375 2.902344 L 29.515625 2.902344 L 29.515625 8 L 0.484375 8 Z M 0.484375 2.902344 " clip-rule="nonzero"/></clipPath><clipPath id="e8395705f5"><path d="M 0.484375 12 L 29.515625 12 L 29.515625 18 L 0.484375 18 Z M 0.484375 12 " clip-rule="nonzero"/></clipPath><clipPath id="38ffc19e10"><path d="M 0.484375 23 L 29.515625 23 L 29.515625 27.582031 L 0.484375 27.582031 Z M 0.484375 23 " clip-rule="nonzero"/></clipPath></defs><g clip-path="url(#bfac48e991)"><path fill="#ffffff" d="M 2.597656 2.324219 L 27.402344 2.324219 C 27.679688 2.324219 27.949219 2.375 28.207031 2.484375 C 28.464844 2.589844 28.691406 2.742188 28.886719 2.9375 C 29.085938 3.136719 29.238281 3.363281 29.34375 3.621094 C 29.449219 3.878906 29.503906 4.144531 29.503906 4.425781 C 29.503906 4.703125 29.449219 4.972656 29.34375 5.230469 C 29.238281 5.488281 29.085938 5.714844 28.886719 5.910156 C 28.691406 6.109375 28.464844 6.261719 28.207031 6.367188 C 27.949219 6.472656 27.679688 6.527344 27.402344 6.527344 L 2.597656 6.527344 C 2.320312 6.527344 2.050781 6.472656 1.792969 6.367188 C 1.535156 6.261719 1.308594 6.109375 1.113281 5.910156 C 0.914062 5.714844 0.761719 5.488281 0.65625 5.230469 C 0.550781 4.972656 0.496094 4.703125 0.496094 4.425781 C 0.496094 4.144531 0.550781 3.878906 0.65625 3.621094 C 0.761719 3.363281 0.914062 3.136719 1.113281 2.9375 C 1.308594 2.742188 1.535156 2.589844 1.792969 2.484375 C 2.050781 2.375 2.320312 2.324219 2.597656 2.324219 Z M 2.597656 2.324219 " fill-opacity="1" fill-rule="evenodd"/></g><g clip-path="url(#5c8028074d)"><path fill="#ffffff" d="M 2.597656 12.410156 L 27.402344 12.410156 C 27.679688 12.410156 27.949219 12.464844 28.207031 12.570312 C 28.464844 12.679688 28.691406 12.832031 28.886719 13.027344 C 29.085938 13.226562 29.238281 13.453125 29.34375 13.710938 C 29.449219 13.96875 29.503906 14.234375 29.503906 14.515625 C 29.503906 14.792969 29.449219 15.0625 29.34375 15.316406 C 29.238281 15.574219 29.085938 15.804688 28.886719 16 C 28.691406 16.195312 28.464844 16.347656 28.207031 16.457031 C 27.949219 16.5625 27.679688 16.617188 27.402344 16.617188 L 2.597656 16.617188 C 2.320312 16.617188 2.050781 16.5625 1.792969 16.457031 C 1.535156 16.347656 1.308594 16.195312 1.113281 16 C 0.914062 15.804688 0.761719 15.574219 0.65625 15.316406 C 0.550781 15.0625 0.496094 14.792969 0.496094 14.515625 C 0.496094 14.234375 0.550781 13.96875 0.65625 13.710938 C 0.761719 13.453125 0.914062 13.226562 1.113281 13.027344 C 1.308594 12.832031 1.535156 12.679688 1.792969 12.570312 C 2.050781 12.464844 2.320312 12.410156 2.597656 12.410156 Z M 2.597656 12.410156 " fill-opacity="1" fill-rule="evenodd"/></g><g clip-path="url(#6c739e12d4)"><path fill="#ffffff" d="M 2.597656 22.5 L 27.402344 22.5 C 27.679688 22.5 27.949219 22.554688 28.207031 22.660156 C 28.464844 22.769531 28.691406 22.917969 28.886719 23.117188 C 29.085938 23.3125 29.238281 23.542969 29.34375 23.796875 C 29.449219 24.054688 29.503906 24.324219 29.503906 24.601562 C 29.503906 24.882812 29.449219 25.148438 29.34375 25.40625 C 29.238281 25.664062 29.085938 25.890625 28.886719 26.089844 C 28.691406 26.285156 28.464844 26.4375 28.207031 26.546875 C 27.949219 26.652344 27.679688 26.707031 27.402344 26.707031 L 2.597656 26.707031 C 2.320312 26.707031 2.050781 26.652344 1.792969 26.546875 C 1.535156 26.4375 1.308594 26.285156 1.113281 26.089844 C 0.914062 25.890625 0.761719 25.664062 0.65625 25.40625 C 0.550781 25.148438 0.496094 24.882812 0.496094 24.601562 C 0.496094 24.324219 0.550781 24.054688 0.65625 23.796875 C 0.761719 23.542969 0.914062 23.3125 1.113281 23.117188 C 1.308594 22.917969 1.535156 22.769531 1.792969 22.660156 C 2.050781 22.554688 2.320312 22.5 2.597656 22.5 Z M 2.597656 22.5 " fill-opacity="1" fill-rule="evenodd"/></g><g clip-path="url(#8e6208f51e)"><path fill="#ffffff" d="M 2.597656 2.902344 L 27.402344 2.902344 C 27.679688 2.902344 27.949219 2.957031 28.207031 3.0625 C 28.464844 3.167969 28.691406 3.320312 28.886719 3.519531 C 29.085938 3.714844 29.238281 3.941406 29.34375 4.199219 C 29.449219 4.457031 29.503906 4.726562 29.503906 5.003906 C 29.503906 5.285156 29.449219 5.550781 29.34375 5.808594 C 29.238281 6.066406 29.085938 6.292969 28.886719 6.492188 C 28.691406 6.6875 28.464844 6.839844 28.207031 6.945312 C 27.949219 7.054688 27.679688 7.105469 27.402344 7.105469 L 2.597656 7.105469 C 2.320312 7.105469 2.050781 7.054688 1.792969 6.945312 C 1.535156 6.839844 1.308594 6.6875 1.113281 6.492188 C 0.914062 6.292969 0.761719 6.066406 0.65625 5.808594 C 0.550781 5.550781 0.496094 5.285156 0.496094 5.003906 C 0.496094 4.726562 0.550781 4.457031 0.65625 4.199219 C 0.761719 3.941406 0.914062 3.714844 1.113281 3.519531 C 1.308594 3.320312 1.535156 3.167969 1.792969 3.0625 C 2.050781 2.957031 2.320312 2.902344 2.597656 2.902344 Z M 2.597656 2.902344 " fill-opacity="1" fill-rule="evenodd"/></g><g clip-path="url(#e8395705f5)"><path fill="#ffffff" d="M 2.597656 12.992188 L 27.402344 12.992188 C 27.679688 12.992188 27.949219 13.046875 28.207031 13.152344 C 28.464844 13.257812 28.691406 13.410156 28.886719 13.609375 C 29.085938 13.804688 29.238281 14.03125 29.34375 14.289062 C 29.449219 14.546875 29.503906 14.816406 29.503906 15.09375 C 29.503906 15.375 29.449219 15.640625 29.34375 15.898438 C 29.238281 16.15625 29.085938 16.382812 28.886719 16.582031 C 28.691406 16.777344 28.464844 16.929688 28.207031 17.035156 C 27.949219 17.144531 27.679688 17.195312 27.402344 17.195312 L 2.597656 17.195312 C 2.320312 17.195312 2.050781 17.144531 1.792969 17.035156 C 1.535156 16.929688 1.308594 16.777344 1.113281 16.582031 C 0.914062 16.382812 0.761719 16.15625 0.65625 15.898438 C 0.550781 15.640625 0.496094 15.375 0.496094 15.09375 C 0.496094 14.816406 0.550781 14.546875 0.65625 14.289062 C 0.761719 14.03125 0.914062 13.804688 1.113281 13.609375 C 1.308594 13.410156 1.535156 13.257812 1.792969 13.152344 C 2.050781 13.046875 2.320312 12.992188 2.597656 12.992188 Z M 2.597656 12.992188 " fill-opacity="1" fill-rule="evenodd"/></g><g clip-path="url(#38ffc19e10)"><path fill="#ffffff" d="M 2.597656 23.082031 L 27.402344 23.082031 C 27.679688 23.082031 27.949219 23.136719 28.207031 23.242188 C 28.464844 23.347656 28.691406 23.5 28.886719 23.699219 C 29.085938 23.894531 29.238281 24.121094 29.34375 24.378906 C 29.449219 24.636719 29.503906 24.90625 29.503906 25.183594 C 29.503906 25.460938 29.449219 25.730469 29.34375 25.988281 C 29.238281 26.246094 29.085938 26.472656 28.886719 26.671875 C 28.691406 26.867188 28.464844 27.019531 28.207031 27.125 C 27.949219 27.234375 27.679688 27.285156 27.402344 27.285156 L 2.597656 27.285156 C 2.320312 27.285156 2.050781 27.234375 1.792969 27.125 C 1.535156 27.019531 1.308594 26.867188 1.113281 26.671875 C 0.914062 26.472656 0.761719 26.246094 0.65625 25.988281 C 0.550781 25.730469 0.496094 25.460938 0.496094 25.183594 C 0.496094 24.90625 0.550781 24.636719 0.65625 24.378906 C 0.761719 24.121094 0.914062 23.894531 1.113281 23.699219 C 1.308594 23.5 1.535156 23.347656 1.792969 23.242188 C 2.050781 23.136719 2.320312 23.082031 2.597656 23.082031 Z M 2.597656 23.082031 " fill-opacity="1" fill-rule="evenodd"/></g></svg>