<svg xmlns="http://www.w3.org/2000/svg" xmlns:xlink="http://www.w3.org/1999/xlink" width="40" zoomAndPan="magnify" viewBox="0 0 30 30.000001" height="40" preserveAspectRatio="xMidYMid meet" version="1.0"><defs><clipPath id="78ec511ba9"><path d="M 0.484375 0 L 28 0 L 28 16 L 0.484375 16 Z M 0.484375 0 " clip-rule="nonzero"/></clipPath><clipPath id="a0d48245e9"><path d="M 2 13 L 29.515625 13 L 29.515625 29.03125 L 2 29.03125 Z M 2 13 " clip-rule="nonzero"/></clipPath><clipPath id="95aa1bbe4f"><path d="M 0.484375 0 L 28 0 L 28 16 L 0.484375 16 Z M 0.484375 0 " clip-rule="nonzero"/></clipPath><clipPath id="3a9c9e6c0d"><path d="M 2 13 L 29.515625 13 L 29.515625 29.03125 L 2 29.03125 Z M 2 13 " clip-rule="nonzero"/></clipPath></defs><g clip-path="url(#78ec511ba9)"><path fill="#ffffff" d="M 2.953125 14.519531 C 2.953125 7.875 8.359375 2.476562 14.996094 2.476562 C 17.847656 2.476562 20.578125 3.46875 22.734375 5.289062 L 21.335938 6.273438 C 21.238281 6.339844 21.179688 6.460938 21.1875 6.585938 C 21.199219 6.703125 21.277344 6.8125 21.386719 6.871094 L 26.988281 9.476562 C 27.097656 9.527344 27.234375 9.515625 27.332031 9.449219 C 27.433594 9.378906 27.492188 9.261719 27.480469 9.132812 L 26.929688 2.980469 C 26.921875 2.859375 26.84375 2.753906 26.734375 2.695312 C 26.625 2.644531 26.488281 2.65625 26.390625 2.722656 L 24.796875 3.84375 C 22.140625 1.414062 18.582031 0.0195312 14.984375 0.0195312 C 6.984375 0.0195312 0.484375 6.527344 0.484375 14.519531 C 0.484375 15.199219 1.035156 15.75 1.710938 15.75 C 2.402344 15.75 2.953125 15.199219 2.953125 14.519531 Z M 2.953125 14.519531 " fill-opacity="1" fill-rule="nonzero"/></g><g clip-path="url(#a0d48245e9)"><path fill="#ffffff" d="M 28.277344 13.292969 C 27.597656 13.292969 27.046875 13.84375 27.046875 14.519531 C 27.046875 21.167969 21.640625 26.566406 15.003906 26.566406 C 11.828125 26.566406 8.859375 25.355469 6.609375 23.152344 L 8.074219 22.277344 C 8.183594 22.21875 8.242188 22.101562 8.242188 21.972656 C 8.242188 21.855469 8.171875 21.738281 8.0625 21.679688 L 2.667969 18.660156 C 2.558594 18.601562 2.429688 18.601562 2.324219 18.660156 C 2.214844 18.71875 2.15625 18.835938 2.15625 18.964844 L 2.242188 25.148438 C 2.242188 25.265625 2.3125 25.386719 2.421875 25.445312 C 2.527344 25.503906 2.65625 25.503906 2.765625 25.445312 L 4.445312 24.441406 C 7.179688 27.351562 11.011719 29.011719 15.015625 29.011719 C 23.015625 29.011719 29.515625 22.503906 29.515625 14.511719 C 29.507812 13.84375 28.957031 13.292969 28.277344 13.292969 Z M 28.277344 13.292969 " fill-opacity="1" fill-rule="nonzero"/></g><g clip-path="url(#95aa1bbe4f)"><path fill="#ffffff" d="M 2.953125 14.519531 C 2.953125 7.875 8.359375 2.476562 14.996094 2.476562 C 17.847656 2.476562 20.578125 3.46875 22.734375 5.289062 L 21.335938 6.273438 C 21.238281 6.339844 21.179688 6.460938 21.1875 6.585938 C 21.199219 6.703125 21.277344 6.8125 21.386719 6.871094 L 26.988281 9.476562 C 27.097656 9.527344 27.234375 9.515625 27.332031 9.449219 C 27.433594 9.378906 27.492188 9.261719 27.480469 9.132812 L 26.929688 2.980469 C 26.921875 2.859375 26.84375 2.753906 26.734375 2.695312 C 26.625 2.644531 26.488281 2.65625 26.390625 2.722656 L 24.796875 3.84375 C 22.140625 1.414062 18.582031 0.0195312 14.984375 0.0195312 C 6.984375 0.0195312 0.484375 6.527344 0.484375 14.519531 C 0.484375 15.199219 1.035156 15.75 1.710938 15.75 C 2.402344 15.75 2.953125 15.199219 2.953125 14.519531 Z M 2.953125 14.519531 " fill-opacity="1" fill-rule="nonzero"/></g><g clip-path="url(#3a9c9e6c0d)"><path fill="#ffffff" d="M 28.277344 13.292969 C 27.597656 13.292969 27.046875 13.84375 27.046875 14.519531 C 27.046875 21.167969 21.640625 26.566406 15.003906 26.566406 C 11.828125 26.566406 8.859375 25.355469 6.609375 23.152344 L 8.074219 22.277344 C 8.183594 22.21875 8.242188 22.101562 8.242188 21.972656 C 8.242188 21.855469 8.171875 21.738281 8.0625 21.679688 L 2.667969 18.660156 C 2.558594 18.601562 2.429688 18.601562 2.324219 18.660156 C 2.214844 18.71875 2.15625 18.835938 2.15625 18.964844 L 2.242188 25.148438 C 2.242188 25.265625 2.3125 25.386719 2.421875 25.445312 C 2.527344 25.503906 2.65625 25.503906 2.765625 25.445312 L 4.445312 24.441406 C 7.179688 27.351562 11.011719 29.011719 15.015625 29.011719 C 23.015625 29.011719 29.515625 22.503906 29.515625 14.511719 C 29.507812 13.84375 28.957031 13.292969 28.277344 13.292969 Z M 28.277344 13.292969 " fill-opacity="1" fill-rule="nonzero"/></g></svg>