<svg xmlns="http://www.w3.org/2000/svg" xmlns:xlink="http://www.w3.org/1999/xlink" width="70" zoomAndPan="magnify" viewBox="0 0 52.5 30.000001" height="40" preserveAspectRatio="xMidYMid meet" version="1.0"><defs><clipPath id="43024c4be2"><path d="M 1.195312 6 L 6 6 L 6 10 L 1.195312 10 Z M 1.195312 6 " clip-rule="nonzero"/></clipPath><clipPath id="3e18e5853b"><path d="M 1.195312 0 L 50.550781 0 L 50.550781 24 L 1.195312 24 Z M 1.195312 0 " clip-rule="nonzero"/></clipPath><clipPath id="e87adbc5a9"><path d="M 0.605469 0 L 49.960938 0 L 49.960938 24 L 0.605469 24 Z M 0.605469 0 " clip-rule="nonzero"/></clipPath></defs><path fill="#4c77b0" d="M 22.167969 21.199219 C 22.476562 21.527344 22.699219 21.910156 22.835938 22.351562 C 22.976562 22.792969 23.019531 23.253906 22.96875 23.738281 C 22.917969 24.21875 22.777344 24.6875 22.542969 25.140625 C 22.308594 25.59375 22.003906 26 21.625 26.351562 C 21.246094 26.707031 20.820312 26.984375 20.351562 27.183594 C 19.882812 27.382812 19.40625 27.492188 18.921875 27.511719 C 18.4375 27.527344 17.976562 27.449219 17.550781 27.28125 C 17.121094 27.113281 16.75 26.863281 16.445312 26.53125 C 16.136719 26.203125 15.914062 25.816406 15.773438 25.378906 C 15.636719 24.9375 15.59375 24.476562 15.644531 23.992188 C 15.695312 23.507812 15.835938 23.042969 16.070312 22.589844 C 16.300781 22.136719 16.609375 21.730469 16.988281 21.378906 C 17.367188 21.023438 17.789062 20.746094 18.257812 20.546875 C 18.726562 20.347656 19.203125 20.238281 19.691406 20.21875 C 20.175781 20.203125 20.632812 20.28125 21.0625 20.449219 C 21.492188 20.617188 21.859375 20.867188 22.167969 21.199219 Z M 22.167969 21.199219 " fill-opacity="1" fill-rule="nonzero"/><path fill="#4c77b0" d="M 43.082031 21.199219 C 43.386719 21.527344 43.609375 21.914062 43.75 22.355469 C 43.886719 22.792969 43.933594 23.253906 43.882812 23.738281 C 43.832031 24.222656 43.6875 24.691406 43.457031 25.144531 C 43.222656 25.597656 42.914062 26 42.535156 26.351562 C 42.15625 26.707031 41.734375 26.984375 41.265625 27.183594 C 40.796875 27.386719 40.320312 27.496094 39.832031 27.511719 C 39.347656 27.527344 38.890625 27.453125 38.460938 27.28125 C 38.03125 27.113281 37.664062 26.863281 37.355469 26.535156 C 37.050781 26.203125 36.824219 25.820312 36.6875 25.378906 C 36.546875 24.941406 36.503906 24.476562 36.554688 23.996094 C 36.605469 23.511719 36.75 23.042969 36.980469 22.589844 C 37.214844 22.136719 37.519531 21.734375 37.898438 21.378906 C 38.28125 21.027344 38.703125 20.75 39.171875 20.546875 C 39.640625 20.347656 40.117188 20.238281 40.601562 20.222656 C 41.089844 20.203125 41.546875 20.28125 41.976562 20.449219 C 42.40625 20.621094 42.773438 20.867188 43.082031 21.199219 Z M 43.082031 21.199219 " fill-opacity="1" fill-rule="nonzero"/><g clip-path="url(#43024c4be2)"><path fill="#4c77b0" d="M 3.386719 6.667969 C 3.605469 6.667969 3.816406 6.710938 4.019531 6.792969 C 4.222656 6.878906 4.402344 6.996094 4.554688 7.152344 C 4.710938 7.308594 4.832031 7.484375 4.914062 7.6875 C 4.996094 7.890625 5.039062 8.101562 5.039062 8.320312 C 5.039062 8.539062 4.996094 8.75 4.914062 8.953125 C 4.832031 9.152344 4.710938 9.332031 4.554688 9.488281 C 4.402344 9.640625 4.222656 9.761719 4.019531 9.84375 C 3.816406 9.929688 3.605469 9.972656 3.386719 9.972656 C 3.167969 9.972656 2.957031 9.929688 2.757812 9.84375 C 2.554688 9.761719 2.375 9.640625 2.21875 9.488281 C 2.066406 9.332031 1.945312 9.152344 1.863281 8.953125 C 1.777344 8.75 1.738281 8.539062 1.738281 8.320312 C 1.738281 8.101562 1.777344 7.890625 1.863281 7.6875 C 1.945312 7.484375 2.066406 7.308594 2.21875 7.152344 C 2.375 6.996094 2.554688 6.878906 2.757812 6.792969 C 2.957031 6.710938 3.167969 6.667969 3.386719 6.667969 Z M 3.386719 6.667969 " fill-opacity="1" fill-rule="nonzero"/></g><g clip-path="url(#3e18e5853b)"><path fill="#4c77b0" d="M 34.726562 23.519531 C 35.3125 20.617188 38.054688 18.3125 41 18.3125 C 43.835938 18.3125 45.878906 20.449219 45.824219 23.199219 C 48.894531 23.28125 49.746094 19.242188 49.746094 19.242188 C 50.003906 18.109375 50.390625 15.910156 50.714844 13.746094 C 50.820312 13.066406 50.742188 12.410156 50.480469 11.773438 C 49.675781 9.894531 48.710938 8.109375 47.582031 6.40625 C 46.519531 4.820312 44.734375 3.878906 42.699219 3.84375 C 41.484375 3.824219 40.289062 3.8125 39.390625 3.8125 L 39.382812 3.804688 C 39.265625 1.863281 37.851562 0.375 35.863281 0.199219 C 34.570312 0.0820312 29.445312 0 26.988281 0 C 26.011719 0 24.609375 0.0117188 23.191406 0.0351562 L 23.191406 0.03125 L 6.132812 0.03125 C 5.914062 0.03125 5.703125 0.0703125 5.5 0.15625 C 5.296875 0.238281 5.121094 0.359375 4.964844 0.515625 C 4.808594 0.667969 4.691406 0.847656 4.605469 1.050781 C 4.523438 1.253906 4.480469 1.464844 4.480469 1.683594 L 4.480469 1.691406 C 4.480469 1.90625 4.523438 2.117188 4.605469 2.320312 C 4.6875 2.519531 4.808594 2.699219 4.960938 2.851562 C 5.117188 3.007812 5.292969 3.125 5.496094 3.210938 C 5.695312 3.292969 5.90625 3.335938 6.125 3.335938 L 9.5625 3.335938 C 9.769531 3.347656 9.964844 3.402344 10.152344 3.492188 C 10.339844 3.582031 10.503906 3.703125 10.644531 3.855469 C 10.785156 4.007812 10.894531 4.179688 10.96875 4.371094 C 11.046875 4.566406 11.085938 4.765625 11.085938 4.972656 L 11.085938 4.980469 C 11.085938 5.199219 11.042969 5.410156 10.960938 5.613281 C 10.878906 5.816406 10.757812 5.996094 10.601562 6.152344 C 10.449219 6.308594 10.269531 6.425781 10.066406 6.511719 C 9.863281 6.597656 9.652344 6.636719 9.433594 6.636719 L 7.671875 6.636719 C 7.453125 6.636719 7.242188 6.679688 7.039062 6.765625 C 6.839844 6.847656 6.660156 6.96875 6.503906 7.121094 C 6.351562 7.277344 6.230469 7.457031 6.148438 7.65625 C 6.0625 7.859375 6.019531 8.070312 6.019531 8.289062 C 6.019531 8.507812 6.0625 8.71875 6.148438 8.921875 C 6.230469 9.125 6.351562 9.300781 6.503906 9.457031 C 6.660156 9.613281 6.839844 9.730469 7.039062 9.816406 C 7.242188 9.898438 7.453125 9.941406 7.671875 9.941406 L 9.433594 9.941406 C 9.652344 9.941406 9.863281 9.984375 10.066406 10.066406 C 10.269531 10.152344 10.449219 10.269531 10.601562 10.425781 C 10.757812 10.578125 10.878906 10.757812 10.960938 10.960938 C 11.042969 11.164062 11.085938 11.375 11.085938 11.59375 C 11.085938 11.8125 11.042969 12.023438 10.960938 12.226562 C 10.878906 12.429688 10.757812 12.605469 10.601562 12.761719 C 10.449219 12.917969 10.269531 13.035156 10.066406 13.121094 C 9.863281 13.203125 9.652344 13.246094 9.433594 13.246094 L 2.84375 13.246094 C 2.625 13.246094 2.414062 13.289062 2.210938 13.371094 C 2.007812 13.453125 1.828125 13.574219 1.675781 13.730469 C 1.519531 13.882812 1.398438 14.0625 1.316406 14.265625 C 1.234375 14.464844 1.191406 14.675781 1.191406 14.894531 C 1.191406 15.117188 1.230469 15.324219 1.316406 15.527344 C 1.398438 15.730469 1.519531 15.910156 1.675781 16.0625 C 1.828125 16.21875 2.007812 16.339844 2.210938 16.421875 C 2.414062 16.507812 2.625 16.546875 2.84375 16.546875 L 9.433594 16.546875 C 9.652344 16.546875 9.863281 16.589844 10.066406 16.675781 C 10.269531 16.757812 10.449219 16.878906 10.601562 17.03125 C 10.757812 17.1875 10.878906 17.367188 10.960938 17.566406 C 11.042969 17.769531 11.085938 17.980469 11.085938 18.199219 C 11.085938 18.417969 11.042969 18.628906 10.960938 18.832031 C 10.875 19.035156 10.757812 19.210938 10.601562 19.367188 C 10.449219 19.523438 10.269531 19.640625 10.066406 19.726562 C 9.863281 19.808594 9.652344 19.851562 9.433594 19.851562 L 7.394531 19.851562 C 7.175781 19.851562 6.964844 19.890625 6.765625 19.976562 C 6.5625 20.058594 6.382812 20.179688 6.226562 20.332031 C 6.074219 20.488281 5.953125 20.667969 5.871094 20.871094 C 5.785156 21.070312 5.746094 21.28125 5.746094 21.5 C 5.746094 21.71875 5.785156 21.929688 5.871094 22.132812 C 5.953125 22.335938 6.074219 22.515625 6.226562 22.667969 C 6.382812 22.824219 6.5625 22.941406 6.765625 23.027344 C 6.964844 23.109375 7.175781 23.152344 7.394531 23.152344 L 13.902344 23.148438 L 14.441406 21.800781 C 15.550781 19.757812 17.753906 18.3125 20.085938 18.3125 C 23.03125 18.3125 25.125 20.621094 24.894531 23.523438 L 34.722656 23.523438 M 18.339844 7.40625 L 16.121094 7.40625 C 16.117188 7.40625 16.113281 7.410156 16.113281 7.414062 L 15.910156 8.867188 C 15.910156 8.871094 15.910156 8.875 15.917969 8.875 L 17.566406 8.875 C 17.648438 8.875 17.726562 8.886719 17.804688 8.921875 C 17.878906 8.953125 17.941406 9.003906 17.996094 9.066406 C 18.050781 9.128906 18.085938 9.199219 18.109375 9.277344 C 18.128906 9.355469 18.132812 9.4375 18.121094 9.515625 C 18.089844 9.699219 18.007812 9.847656 17.867188 9.96875 C 17.730469 10.089844 17.570312 10.152344 17.386719 10.15625 L 15.734375 10.15625 C 15.730469 10.15625 15.726562 10.160156 15.726562 10.164062 L 15.429688 12.273438 C 15.402344 12.453125 15.320312 12.605469 15.179688 12.722656 C 15.042969 12.84375 14.882812 12.90625 14.699219 12.914062 C 14.617188 12.914062 14.539062 12.902344 14.464844 12.867188 C 14.390625 12.835938 14.324219 12.785156 14.273438 12.722656 C 14.21875 12.660156 14.179688 12.589844 14.160156 12.511719 C 14.136719 12.433594 14.136719 12.351562 14.148438 12.273438 L 14.917969 6.804688 C 14.949219 6.613281 15.039062 6.457031 15.183594 6.328125 C 15.328125 6.199219 15.5 6.132812 15.691406 6.128906 L 18.519531 6.128906 C 18.601562 6.125 18.679688 6.140625 18.753906 6.175781 C 18.828125 6.207031 18.894531 6.253906 18.945312 6.316406 C 19 6.378906 19.039062 6.449219 19.058594 6.53125 C 19.082031 6.609375 19.082031 6.6875 19.070312 6.769531 C 19.039062 6.949219 18.957031 7.097656 18.820312 7.21875 C 18.679688 7.339844 18.523438 7.402344 18.339844 7.40625 Z M 24.265625 6.5625 C 24.5 6.773438 24.65625 7.03125 24.730469 7.335938 C 24.808594 7.679688 24.824219 8.023438 24.769531 8.371094 C 24.699219 8.917969 24.488281 9.40625 24.136719 9.828125 C 23.921875 10.082031 23.660156 10.269531 23.355469 10.394531 C 23.351562 10.398438 23.351562 10.402344 23.355469 10.40625 L 23.90625 11.992188 C 24.054688 12.417969 23.671875 12.914062 23.199219 12.914062 L 23.167969 12.914062 C 22.90625 12.921875 22.730469 12.800781 22.644531 12.550781 L 21.976562 10.617188 C 21.976562 10.613281 21.972656 10.613281 21.96875 10.613281 L 20.558594 10.613281 C 20.554688 10.613281 20.550781 10.613281 20.546875 10.621094 L 20.316406 12.269531 C 20.289062 12.453125 20.203125 12.601562 20.066406 12.722656 C 19.929688 12.84375 19.769531 12.90625 19.585938 12.914062 C 19.503906 12.914062 19.425781 12.898438 19.351562 12.867188 C 19.273438 12.832031 19.210938 12.785156 19.15625 12.722656 C 19.105469 12.660156 19.066406 12.589844 19.046875 12.511719 C 19.023438 12.433594 19.019531 12.351562 19.035156 12.269531 L 19.804688 6.804688 C 19.835938 6.613281 19.921875 6.453125 20.070312 6.328125 C 20.214844 6.199219 20.382812 6.132812 20.578125 6.128906 L 22.761719 6.128906 C 22.761719 6.128906 23.722656 6.097656 24.265625 6.5625 Z M 30.28125 6.722656 C 30.253906 6.894531 30.175781 7.035156 30.046875 7.148438 C 29.917969 7.257812 29.769531 7.316406 29.597656 7.324219 L 27.054688 7.324219 C 27.050781 7.324219 27.046875 7.324219 27.046875 7.328125 L 26.84375 8.765625 C 26.84375 8.773438 26.84375 8.773438 26.851562 8.773438 L 28.828125 8.773438 C 28.988281 8.769531 29.121094 8.828125 29.226562 8.953125 C 29.332031 9.074219 29.371094 9.214844 29.339844 9.375 C 29.316406 9.542969 29.238281 9.683594 29.109375 9.796875 C 28.980469 9.910156 28.828125 9.96875 28.660156 9.972656 L 26.683594 9.972656 C 26.679688 9.972656 26.675781 9.976562 26.675781 9.980469 L 26.429688 11.707031 C 26.429688 11.710938 26.433594 11.714844 26.441406 11.714844 L 28.980469 11.714844 C 29.140625 11.710938 29.277344 11.769531 29.382812 11.894531 C 29.484375 12.015625 29.523438 12.15625 29.496094 12.316406 C 29.46875 12.484375 29.390625 12.625 29.261719 12.738281 C 29.132812 12.851562 28.984375 12.910156 28.8125 12.914062 L 25.660156 12.914062 C 25.574219 12.914062 25.492188 12.898438 25.414062 12.863281 C 25.335938 12.828125 25.265625 12.777344 25.210938 12.710938 C 25.15625 12.644531 25.113281 12.570312 25.09375 12.488281 C 25.070312 12.40625 25.066406 12.320312 25.078125 12.238281 L 25.84375 6.808594 C 25.875 6.617188 25.960938 6.457031 26.109375 6.332031 C 26.253906 6.203125 26.421875 6.136719 26.617188 6.132812 L 29.769531 6.132812 C 29.929688 6.128906 30.058594 6.1875 30.164062 6.308594 C 30.269531 6.429688 30.308594 6.566406 30.28125 6.722656 Z M 35.5625 6.722656 C 35.535156 6.894531 35.457031 7.035156 35.328125 7.148438 C 35.199219 7.257812 35.050781 7.316406 34.878906 7.324219 L 32.335938 7.324219 C 32.332031 7.324219 32.328125 7.324219 32.328125 7.328125 L 32.128906 8.765625 C 32.125 8.773438 32.128906 8.773438 32.136719 8.773438 L 34.109375 8.773438 C 34.269531 8.769531 34.40625 8.828125 34.511719 8.953125 C 34.617188 9.074219 34.652344 9.214844 34.625 9.375 C 34.597656 9.542969 34.519531 9.683594 34.390625 9.796875 C 34.261719 9.910156 34.113281 9.96875 33.941406 9.972656 L 31.964844 9.972656 C 31.960938 9.972656 31.957031 9.976562 31.957031 9.980469 L 31.714844 11.707031 C 31.714844 11.710938 31.714844 11.714844 31.722656 11.714844 L 34.261719 11.714844 C 34.425781 11.710938 34.558594 11.769531 34.664062 11.894531 C 34.769531 12.015625 34.804688 12.15625 34.777344 12.316406 C 34.75 12.484375 34.671875 12.625 34.542969 12.738281 C 34.414062 12.851562 34.265625 12.910156 34.09375 12.914062 L 30.941406 12.914062 C 30.855469 12.914062 30.773438 12.898438 30.695312 12.863281 C 30.617188 12.828125 30.546875 12.777344 30.492188 12.710938 C 30.4375 12.644531 30.398438 12.570312 30.375 12.488281 C 30.351562 12.40625 30.347656 12.320312 30.359375 12.238281 L 31.125 6.808594 C 31.15625 6.617188 31.242188 6.457031 31.390625 6.332031 C 31.535156 6.203125 31.703125 6.136719 31.898438 6.132812 L 35.050781 6.132812 C 35.210938 6.128906 35.339844 6.1875 35.445312 6.308594 C 35.550781 6.429688 35.589844 6.566406 35.5625 6.722656 Z M 39.238281 6.105469 C 40.101562 6.105469 41.21875 6.117188 42.339844 6.132812 C 43.703125 6.15625 44.890625 6.78125 45.605469 7.847656 C 46.367188 8.996094 47.050781 10.195312 47.65625 11.4375 C 47.976562 12.085938 47.386719 12.933594 46.621094 12.933594 L 38.375 12.933594 Z M 39.238281 6.105469 " fill-opacity="1" fill-rule="nonzero"/></g><path fill="#4c77b0" d="M 22.246094 9.417969 L 20.71875 9.417969 L 21.007812 7.324219 L 22.535156 7.324219 C 22.535156 7.324219 23.65625 7.25 23.472656 8.371094 C 23.476562 8.371094 23.347656 9.417969 22.246094 9.417969 Z M 22.246094 9.417969 " fill-opacity="1" fill-rule="nonzero"/><path fill="#4c77b0" d="M 21.578125 21.199219 C 21.886719 21.527344 22.109375 21.910156 22.246094 22.351562 C 22.386719 22.792969 22.429688 23.253906 22.378906 23.738281 C 22.328125 24.21875 22.1875 24.6875 21.953125 25.140625 C 21.71875 25.59375 21.414062 26 21.035156 26.351562 C 20.65625 26.707031 20.230469 26.984375 19.761719 27.183594 C 19.292969 27.382812 18.816406 27.492188 18.332031 27.511719 C 17.847656 27.527344 17.390625 27.449219 16.960938 27.28125 C 16.53125 27.113281 16.160156 26.863281 15.855469 26.53125 C 15.546875 26.203125 15.324219 25.816406 15.183594 25.378906 C 15.046875 24.9375 15.003906 24.476562 15.054688 23.992188 C 15.105469 23.507812 15.246094 23.042969 15.480469 22.589844 C 15.710938 22.136719 16.019531 21.730469 16.398438 21.378906 C 16.777344 21.023438 17.203125 20.746094 17.667969 20.546875 C 18.136719 20.347656 18.613281 20.238281 19.101562 20.21875 C 19.585938 20.203125 20.042969 20.28125 20.472656 20.449219 C 20.902344 20.617188 21.269531 20.867188 21.578125 21.199219 Z M 21.578125 21.199219 " fill-opacity="1" fill-rule="nonzero"/><path fill="#4c77b0" d="M 42.492188 21.199219 C 42.796875 21.527344 43.019531 21.914062 43.160156 22.355469 C 43.296875 22.792969 43.34375 23.253906 43.292969 23.738281 C 43.242188 24.222656 43.097656 24.691406 42.867188 25.144531 C 42.632812 25.597656 42.328125 26 41.945312 26.351562 C 41.566406 26.707031 41.144531 26.984375 40.675781 27.183594 C 40.207031 27.386719 39.730469 27.496094 39.246094 27.511719 C 38.757812 27.527344 38.300781 27.453125 37.871094 27.28125 C 37.441406 27.113281 37.074219 26.863281 36.765625 26.535156 C 36.460938 26.203125 36.238281 25.820312 36.097656 25.378906 C 35.960938 24.941406 35.914062 24.476562 35.964844 23.996094 C 36.015625 23.511719 36.160156 23.042969 36.390625 22.589844 C 36.625 22.136719 36.929688 21.734375 37.3125 21.378906 C 37.691406 21.027344 38.113281 20.75 38.582031 20.546875 C 39.050781 20.347656 39.527344 20.238281 40.011719 20.222656 C 40.5 20.203125 40.957031 20.28125 41.386719 20.449219 C 41.816406 20.621094 42.183594 20.867188 42.492188 21.199219 Z M 42.492188 21.199219 " fill-opacity="1" fill-rule="nonzero"/><path fill="#4c77b0" d="M 2.800781 6.667969 C 3.019531 6.667969 3.230469 6.710938 3.429688 6.792969 C 3.632812 6.878906 3.8125 6.996094 3.964844 7.152344 C 4.121094 7.308594 4.242188 7.484375 4.324219 7.6875 C 4.410156 7.890625 4.449219 8.101562 4.449219 8.320312 C 4.449219 8.539062 4.410156 8.75 4.324219 8.953125 C 4.242188 9.152344 4.121094 9.332031 3.964844 9.488281 C 3.8125 9.640625 3.632812 9.761719 3.429688 9.84375 C 3.230469 9.929688 3.019531 9.972656 2.800781 9.972656 C 2.578125 9.972656 2.371094 9.929688 2.167969 9.84375 C 1.964844 9.761719 1.785156 9.640625 1.632812 9.488281 C 1.476562 9.332031 1.355469 9.152344 1.273438 8.953125 C 1.1875 8.75 1.148438 8.539062 1.148438 8.320312 C 1.148438 8.101562 1.1875 7.890625 1.273438 7.6875 C 1.355469 7.484375 1.476562 7.308594 1.632812 7.152344 C 1.785156 6.996094 1.964844 6.878906 2.167969 6.792969 C 2.371094 6.710938 2.578125 6.667969 2.800781 6.667969 Z M 2.800781 6.667969 " fill-opacity="1" fill-rule="nonzero"/><g clip-path="url(#e87adbc5a9)"><path fill="#4c77b0" d="M 34.136719 23.519531 C 34.722656 20.617188 37.464844 18.3125 40.410156 18.3125 C 43.246094 18.3125 45.292969 20.449219 45.234375 23.199219 C 48.304688 23.28125 49.15625 19.242188 49.15625 19.242188 C 49.414062 18.109375 49.800781 15.910156 50.125 13.746094 C 50.234375 13.066406 50.152344 12.410156 49.890625 11.773438 C 49.085938 9.894531 48.121094 8.109375 46.992188 6.40625 C 45.929688 4.820312 44.144531 3.878906 42.109375 3.84375 C 40.894531 3.824219 39.699219 3.8125 38.800781 3.8125 L 38.792969 3.804688 C 38.675781 1.863281 37.261719 0.375 35.273438 0.199219 C 33.980469 0.0820312 28.859375 0 26.398438 0 C 25.421875 0 24.019531 0.0117188 22.601562 0.0351562 L 22.601562 0.03125 L 5.542969 0.03125 C 5.324219 0.03125 5.113281 0.0703125 4.910156 0.15625 C 4.707031 0.238281 4.53125 0.359375 4.375 0.515625 C 4.21875 0.667969 4.101562 0.847656 4.015625 1.050781 C 3.933594 1.253906 3.890625 1.464844 3.890625 1.683594 L 3.890625 1.691406 C 3.890625 1.90625 3.933594 2.117188 4.015625 2.320312 C 4.101562 2.519531 4.21875 2.699219 4.371094 2.851562 C 4.527344 3.007812 4.703125 3.125 4.90625 3.210938 C 5.109375 3.292969 5.316406 3.335938 5.535156 3.335938 L 8.972656 3.335938 C 9.179688 3.347656 9.375 3.402344 9.5625 3.492188 C 9.75 3.582031 9.914062 3.703125 10.054688 3.855469 C 10.195312 4.007812 10.304688 4.179688 10.382812 4.371094 C 10.457031 4.566406 10.496094 4.765625 10.496094 4.972656 L 10.496094 4.980469 C 10.496094 5.199219 10.453125 5.410156 10.371094 5.613281 C 10.289062 5.816406 10.167969 5.996094 10.015625 6.152344 C 9.859375 6.308594 9.679688 6.425781 9.476562 6.511719 C 9.277344 6.597656 9.066406 6.636719 8.84375 6.636719 L 7.082031 6.636719 C 6.863281 6.636719 6.652344 6.679688 6.453125 6.765625 C 6.25 6.847656 6.070312 6.96875 5.914062 7.121094 C 5.761719 7.277344 5.640625 7.457031 5.558594 7.65625 C 5.472656 7.859375 5.433594 8.070312 5.433594 8.289062 C 5.433594 8.507812 5.472656 8.71875 5.558594 8.921875 C 5.640625 9.125 5.761719 9.300781 5.914062 9.457031 C 6.070312 9.613281 6.25 9.730469 6.449219 9.816406 C 6.652344 9.898438 6.863281 9.941406 7.082031 9.941406 L 8.84375 9.941406 C 9.0625 9.941406 9.273438 9.984375 9.476562 10.066406 C 9.679688 10.152344 9.859375 10.269531 10.011719 10.425781 C 10.167969 10.578125 10.289062 10.757812 10.371094 10.960938 C 10.457031 11.164062 10.496094 11.375 10.496094 11.59375 C 10.496094 11.8125 10.457031 12.023438 10.371094 12.226562 C 10.289062 12.429688 10.167969 12.605469 10.011719 12.761719 C 9.859375 12.917969 9.679688 13.035156 9.476562 13.121094 C 9.273438 13.203125 9.0625 13.246094 8.84375 13.246094 L 2.253906 13.246094 C 2.035156 13.246094 1.824219 13.289062 1.621094 13.371094 C 1.417969 13.453125 1.238281 13.574219 1.085938 13.730469 C 0.929688 13.882812 0.8125 14.0625 0.726562 14.265625 C 0.644531 14.464844 0.601562 14.675781 0.601562 14.894531 C 0.601562 15.117188 0.644531 15.324219 0.726562 15.527344 C 0.8125 15.730469 0.929688 15.910156 1.085938 16.0625 C 1.238281 16.21875 1.417969 16.339844 1.621094 16.421875 C 1.824219 16.507812 2.035156 16.546875 2.253906 16.546875 L 8.84375 16.546875 C 9.0625 16.546875 9.273438 16.589844 9.476562 16.675781 C 9.679688 16.757812 9.859375 16.878906 10.011719 17.03125 C 10.167969 17.1875 10.289062 17.367188 10.371094 17.566406 C 10.457031 17.769531 10.496094 17.980469 10.496094 18.199219 C 10.496094 18.417969 10.453125 18.628906 10.371094 18.832031 C 10.285156 19.035156 10.167969 19.210938 10.011719 19.367188 C 9.859375 19.523438 9.679688 19.640625 9.476562 19.726562 C 9.273438 19.808594 9.0625 19.851562 8.84375 19.851562 L 6.804688 19.851562 C 6.585938 19.851562 6.378906 19.890625 6.175781 19.976562 C 5.972656 20.058594 5.792969 20.179688 5.640625 20.332031 C 5.484375 20.488281 5.363281 20.667969 5.28125 20.871094 C 5.199219 21.070312 5.15625 21.28125 5.15625 21.5 C 5.15625 21.71875 5.199219 21.929688 5.28125 22.132812 C 5.363281 22.335938 5.484375 22.515625 5.640625 22.667969 C 5.792969 22.824219 5.972656 22.941406 6.175781 23.027344 C 6.375 23.109375 6.585938 23.152344 6.804688 23.152344 L 13.3125 23.148438 L 13.851562 21.800781 C 14.960938 19.757812 17.164062 18.3125 19.496094 18.3125 C 22.441406 18.3125 24.535156 20.621094 24.304688 23.523438 L 34.132812 23.523438 M 17.75 7.40625 L 15.535156 7.40625 C 15.527344 7.40625 15.527344 7.410156 15.523438 7.414062 L 15.320312 8.867188 C 15.320312 8.871094 15.320312 8.875 15.328125 8.875 L 16.980469 8.875 C 17.0625 8.875 17.140625 8.886719 17.214844 8.921875 C 17.289062 8.953125 17.351562 9.003906 17.40625 9.066406 C 17.460938 9.128906 17.496094 9.199219 17.519531 9.277344 C 17.539062 9.355469 17.542969 9.4375 17.53125 9.515625 C 17.5 9.699219 17.417969 9.847656 17.28125 9.96875 C 17.140625 10.089844 16.980469 10.152344 16.796875 10.15625 L 15.148438 10.15625 C 15.140625 10.15625 15.140625 10.160156 15.136719 10.164062 L 14.84375 12.273438 C 14.8125 12.453125 14.730469 12.605469 14.59375 12.722656 C 14.453125 12.84375 14.292969 12.90625 14.109375 12.914062 C 14.027344 12.914062 13.949219 12.902344 13.875 12.867188 C 13.800781 12.835938 13.734375 12.785156 13.683594 12.722656 C 13.628906 12.660156 13.59375 12.589844 13.570312 12.511719 C 13.550781 12.433594 13.546875 12.351562 13.558594 12.273438 L 14.328125 6.804688 C 14.359375 6.613281 14.449219 6.457031 14.59375 6.328125 C 14.738281 6.199219 14.910156 6.132812 15.101562 6.128906 L 17.929688 6.128906 C 18.011719 6.125 18.089844 6.140625 18.164062 6.175781 C 18.238281 6.207031 18.304688 6.253906 18.359375 6.316406 C 18.410156 6.378906 18.449219 6.449219 18.46875 6.53125 C 18.492188 6.609375 18.496094 6.6875 18.480469 6.769531 C 18.449219 6.949219 18.367188 7.097656 18.230469 7.21875 C 18.09375 7.339844 17.933594 7.402344 17.75 7.40625 Z M 23.675781 6.5625 C 23.910156 6.773438 24.066406 7.03125 24.140625 7.335938 C 24.222656 7.679688 24.234375 8.023438 24.179688 8.371094 C 24.109375 8.917969 23.898438 9.40625 23.546875 9.828125 C 23.332031 10.082031 23.074219 10.269531 22.765625 10.394531 C 22.761719 10.398438 22.761719 10.402344 22.765625 10.40625 L 23.316406 11.992188 C 23.464844 12.417969 23.082031 12.914062 22.609375 12.914062 L 22.578125 12.914062 C 22.316406 12.921875 22.140625 12.800781 22.054688 12.550781 L 21.390625 10.617188 C 21.386719 10.613281 21.382812 10.613281 21.378906 10.613281 L 19.96875 10.613281 C 19.964844 10.613281 19.960938 10.613281 19.960938 10.621094 L 19.726562 12.269531 C 19.699219 12.453125 19.613281 12.601562 19.476562 12.722656 C 19.339844 12.84375 19.179688 12.90625 18.996094 12.914062 C 18.914062 12.914062 18.835938 12.898438 18.761719 12.867188 C 18.6875 12.832031 18.621094 12.785156 18.566406 12.722656 C 18.515625 12.660156 18.476562 12.589844 18.457031 12.511719 C 18.433594 12.433594 18.429688 12.351562 18.445312 12.269531 L 19.214844 6.804688 C 19.246094 6.613281 19.332031 6.453125 19.480469 6.328125 C 19.625 6.199219 19.792969 6.132812 19.988281 6.128906 L 22.171875 6.128906 C 22.171875 6.128906 23.132812 6.097656 23.675781 6.5625 Z M 29.691406 6.722656 C 29.664062 6.894531 29.585938 7.035156 29.457031 7.148438 C 29.328125 7.257812 29.179688 7.316406 29.007812 7.324219 L 26.464844 7.324219 C 26.460938 7.324219 26.457031 7.324219 26.457031 7.328125 L 26.253906 8.765625 C 26.253906 8.773438 26.253906 8.773438 26.261719 8.773438 L 28.238281 8.773438 C 28.398438 8.769531 28.53125 8.828125 28.636719 8.953125 C 28.742188 9.074219 28.78125 9.214844 28.753906 9.375 C 28.726562 9.542969 28.648438 9.683594 28.519531 9.796875 C 28.390625 9.910156 28.242188 9.96875 28.070312 9.972656 L 26.09375 9.972656 C 26.089844 9.972656 26.085938 9.976562 26.085938 9.980469 L 25.84375 11.707031 C 25.84375 11.710938 25.84375 11.714844 25.851562 11.714844 L 28.390625 11.714844 C 28.554688 11.710938 28.6875 11.769531 28.792969 11.894531 C 28.898438 12.015625 28.933594 12.15625 28.90625 12.316406 C 28.878906 12.484375 28.800781 12.625 28.671875 12.738281 C 28.542969 12.851562 28.394531 12.910156 28.222656 12.914062 L 25.070312 12.914062 C 24.984375 12.914062 24.902344 12.898438 24.824219 12.863281 C 24.746094 12.828125 24.675781 12.777344 24.621094 12.710938 C 24.566406 12.644531 24.527344 12.570312 24.503906 12.488281 C 24.480469 12.40625 24.476562 12.320312 24.488281 12.238281 L 25.253906 6.808594 C 25.285156 6.617188 25.371094 6.457031 25.519531 6.332031 C 25.664062 6.203125 25.832031 6.136719 26.027344 6.132812 L 29.179688 6.132812 C 29.339844 6.128906 29.46875 6.1875 29.574219 6.308594 C 29.679688 6.429688 29.71875 6.566406 29.691406 6.722656 Z M 34.972656 6.722656 C 34.945312 6.894531 34.867188 7.035156 34.738281 7.148438 C 34.609375 7.257812 34.460938 7.316406 34.289062 7.324219 L 31.746094 7.324219 C 31.742188 7.324219 31.742188 7.324219 31.738281 7.328125 L 31.539062 8.765625 C 31.535156 8.773438 31.539062 8.773438 31.546875 8.773438 L 33.519531 8.773438 C 33.683594 8.769531 33.816406 8.828125 33.921875 8.953125 C 34.027344 9.074219 34.0625 9.214844 34.035156 9.375 C 34.007812 9.542969 33.929688 9.683594 33.800781 9.796875 C 33.671875 9.910156 33.523438 9.96875 33.351562 9.972656 L 31.375 9.972656 C 31.371094 9.972656 31.367188 9.976562 31.367188 9.980469 L 31.125 11.707031 C 31.125 11.710938 31.125 11.714844 31.132812 11.714844 L 33.671875 11.714844 C 33.835938 11.710938 33.96875 11.769531 34.074219 11.894531 C 34.179688 12.015625 34.21875 12.15625 34.1875 12.316406 C 34.160156 12.484375 34.082031 12.625 33.953125 12.738281 C 33.824219 12.851562 33.675781 12.910156 33.503906 12.914062 L 30.351562 12.914062 C 30.265625 12.914062 30.183594 12.898438 30.105469 12.863281 C 30.027344 12.828125 29.960938 12.777344 29.902344 12.710938 C 29.847656 12.644531 29.808594 12.570312 29.785156 12.488281 C 29.761719 12.40625 29.757812 12.320312 29.773438 12.238281 L 30.535156 6.808594 C 30.566406 6.617188 30.65625 6.457031 30.800781 6.332031 C 30.945312 6.203125 31.117188 6.136719 31.308594 6.132812 L 34.460938 6.132812 C 34.621094 6.128906 34.753906 6.1875 34.855469 6.308594 C 34.960938 6.429688 35 6.566406 34.972656 6.722656 Z M 38.648438 6.105469 C 39.511719 6.105469 40.628906 6.117188 41.753906 6.132812 C 43.113281 6.15625 44.300781 6.78125 45.015625 7.847656 C 45.777344 8.996094 46.460938 10.195312 47.066406 11.4375 C 47.386719 12.085938 46.800781 12.933594 46.03125 12.933594 L 37.785156 12.933594 Z M 38.648438 6.105469 " fill-opacity="1" fill-rule="nonzero"/></g><path fill="#4c77b0" d="M 21.65625 9.417969 L 20.128906 9.417969 L 20.417969 7.324219 L 21.945312 7.324219 C 21.945312 7.324219 23.066406 7.25 22.882812 8.371094 C 22.886719 8.371094 22.757812 9.417969 21.65625 9.417969 Z M 21.65625 9.417969 " fill-opacity="1" fill-rule="nonzero"/></svg>