<svg xmlns="http://www.w3.org/2000/svg" xmlns:xlink="http://www.w3.org/1999/xlink" width="40" zoomAndPan="magnify" viewBox="0 0 30 30.000001" height="40" preserveAspectRatio="xMidYMid meet" version="1.0"><defs><clipPath id="965d546e35"><path d="M 0.484375 0 L 29.515625 0 L 29.515625 29.03125 L 0.484375 29.03125 Z M 0.484375 0 " clip-rule="nonzero"/></clipPath></defs><g clip-path="url(#965d546e35)"><path fill="#245ca3" d="M 15 0 C 23 0 29.515625 6.515625 29.515625 14.515625 C 29.515625 22.515625 23 29.03125 15 29.03125 C 7 29.03125 0.484375 22.515625 0.484375 14.515625 C 0.484375 6.515625 7 0 15 0 Z M 15 0 " fill-opacity="1" fill-rule="nonzero"/></g><path fill="#ffffff" d="M 17.683594 14.515625 L 22.761719 9.4375 C 23.527344 8.671875 23.527344 7.472656 22.761719 6.707031 C 21.996094 5.941406 20.796875 5.941406 20.03125 6.707031 L 15 11.785156 L 9.875 6.707031 C 9.105469 5.941406 7.910156 5.941406 7.144531 6.707031 C 6.375 7.472656 6.375 8.671875 7.144531 9.4375 L 12.222656 14.515625 L 7.191406 19.59375 C 6.425781 20.359375 6.425781 21.558594 7.191406 22.324219 C 7.574219 22.707031 8.054688 22.898438 8.53125 22.898438 C 9.011719 22.898438 9.492188 22.707031 9.875 22.324219 L 14.953125 17.246094 L 20.03125 22.324219 C 20.414062 22.707031 20.894531 22.898438 21.371094 22.898438 C 21.851562 22.898438 22.328125 22.707031 22.714844 22.324219 C 23.480469 21.558594 23.480469 20.359375 22.714844 19.59375 Z M 17.683594 14.515625 " fill-opacity="1" fill-rule="nonzero"/></svg>